<svg viewBox="0 0 384 384" focusable="false" class="chakra-icon css-12wkbdf" xmlns="http://www.w3.org/2000/svg">
  <defs>
    <linearGradient id="paint0_linear_31_30" x1="159.197" y1="149.606" x2="-33.2981" y2="309.112" gradientUnits="userSpaceOnUse">
      <stop stop-color="#29CC57"></stop>
      <stop offset="1" stop-color="#29CC57" stop-opacity="0"></stop>
    </linearGradient>
    <clipPath id="clip0">
      <rect width="384" height="384" fill="white"></rect>
    </clipPath>
  </defs>

  <g clip-path="url(#clip0)" transform="rotate(240 210 192)">
    <path
      fill="#29CC57"
      fill-rule="evenodd"
      clip-rule="evenodd"
      d="
        M358.23 215.986
        L358.235 215.976
        C373.489 189.533 364.954 165.649 358.532 153.898
        C343.576 126.526 334.259 88.2035 334.14 59.9956
        C334.097 49.415 329.419 24.3676 302.762 8.97669
        C276.104 -6.41422 252.067 2.06866 242.889 7.31128
        C218.4 21.3122 180.553 32.4048 149.371 33.1382
        C135.989 33.4423 111.038 37.9928 95.7642 64.4241
        L95.7583 64.4343
        C95.7583 64.4343 95.7583 64.4344 95.7464 64.4549
        C80.4931 90.898 89.028 114.782 95.4494 126.533
        C110.406 153.904 119.722 192.227 119.841 220.435
        C119.885 231.016 124.562 256.063 151.22 271.454
        C177.878 286.845 201.915 278.362 211.093 273.119
        C235.582 259.118 273.428 248.026 304.611 247.292
        C317.998 246.978 342.95 242.427 358.224 215.996
        L358.23 215.986
        Z"
    ></path>
    <path
      d="M184.859 103.313C176.489 117.809 181.456 136.345 195.952 144.715L253.22 177.778C267.716 186.148 286.252 181.181 294.622 166.685L322.265 118.805L212.502 55.4334L184.859 103.313Z"
      fill="white"
    ></path>
    <path
      d="M276.647 138.175L228.924 110.622L248.725 76.3245L296.449 103.877L276.647 138.175Z"
      fill="black"
    ></path>
  </g>
</svg>
