<svg
  xmlns="http://www.w3.org/2000/svg"
  viewBox="0 0 16 16"
  focusable="false"
  class="chakra-icon css-1pckyyl"
  fill="grey"
>
  <path
    fill-rule="evenodd"
    clip-rule="evenodd"
    d="M6.853 0C5.035 0 3.292 0.722 2.007 2.007 0.722 3.292 0 5.035 0 6.853v0.295c0 1.818 0.722 3.561 2.007 4.846C3.292 13.278 5.035 14 6.853 14h0.295c1.48 0 2.911-0.48 4.086-1.353l3.059 3.059 1.414-1.414-3.059-3.059C13.521 10.059 14 8.628 14 7.147V6.853c0-1.818-0.722-3.561-2.007-4.846C10.708 0.722 8.965 0 7.147 0H6.853zM3.421 3.421C4.331 2.511 5.566 2 6.853 2h0.295c1.287 0 2.522 0.511 3.432 1.421 0.91 0.91 1.421 2.145 1.421 3.432v0.295c0 1.287-0.511 2.522-1.421 3.432-0.91 0.91-2.145 1.421-3.432 1.421H6.853c-1.287 0-2.522-0.511-3.432-1.421C2.511 9.669 2 8.434 2 7.147V6.853c0-1.287 0.511-2.522 1.421-3.432z"
  />
</svg>
